<?xml version="1.0" encoding="UTF-8" standalone="no"?>
<!-- Created with Inkscape (http://www.inkscape.org/) -->

<svg
   xmlns:dc="http://purl.org/dc/elements/1.1/"
   xmlns:cc="http://creativecommons.org/ns#"
   xmlns:rdf="http://www.w3.org/1999/02/22-rdf-syntax-ns#"
   xmlns:svg="http://www.w3.org/2000/svg"
   xmlns="http://www.w3.org/2000/svg"
   xmlns:sodipodi="http://sodipodi.sourceforge.net/DTD/sodipodi-0.dtd"
   xmlns:inkscape="http://www.inkscape.org/namespaces/inkscape"
   width="48.94619mm"
   height="42.893562mm"
   version="1.1"
   viewBox="0 0 48.94619 42.893561"
   id="svg18"
   sodipodi:docname="Code.svg"
   inkscape:version="0.92.2 (5c3e80d, 2017-08-06)">
  <defs
     id="defs22" />
  <sodipodi:namedview
     pagecolor="#ffffff"
     bordercolor="#666666"
     borderopacity="1"
     objecttolerance="10"
     gridtolerance="10"
     guidetolerance="10"
     inkscape:pageopacity="0"
     inkscape:pageshadow="2"
     inkscape:window-width="1680"
     inkscape:window-height="987"
     id="namedview20"
     showgrid="false"
     inkscape:zoom="2.8284271"
     inkscape:cx="202.0558"
     inkscape:cy="87.403309"
     inkscape:window-x="-8"
     inkscape:window-y="-8"
     inkscape:window-maximized="1"
     inkscape:current-layer="svg18"
     fit-margin-top="0"
     fit-margin-left="0"
     fit-margin-right="0"
     fit-margin-bottom="0" />
  <metadata
     id="metadata2">
    <rdf:RDF>
      <cc:Work
         rdf:about="">
        <dc:format>image/svg+xml</dc:format>
        <dc:type
           rdf:resource="http://purl.org/dc/dcmitype/StillImage" />
        <dc:title></dc:title>
      </cc:Work>
    </rdf:RDF>
  </metadata>
  <g
     transform="matrix(1.0261159,0,0,1.0765212,214.14241,-187.90859)"
     id="g16">
    <path
       d="m -173.03,214.36 -23.808,-0.10202 -11.812,-19.886 11.996,-19.784 23.808,0.10203 11.812,19.886 z"
       id="path4"
       inkscape:connector-curvature="0"
       style="fill:#440bd2;stroke:#440bd2;stroke-width:0.07241" />
    <path
       d="m -174.2,212.61 -21.832,-0.0936 -10.832,-18.235 11,-18.142 21.832,0.0936 10.832,18.235 z"
       id="path6"
       inkscape:connector-curvature="0"
       style="fill:#0f0015;stroke-width:0.066399" />
    <g
       id="g14">
      <path
         d="m -180.04,187.44 11.96,6.8891 -11.96,7.6703"
         id="path8"
         inkscape:connector-curvature="0"
         style="fill:none;stroke:#440bd2;stroke-width:1.41349995;stroke-linecap:round;stroke-linejoin:round" />
      <path
         d="m -188.84,200.18 c -0.12148,-0.0818 -0.22087,-0.23442 -0.22087,-0.33902 0,-0.19956 4.8111,-11.033 5.0736,-11.424 0.26511,-0.3954 0.88085,-0.23989 0.8749,0.22095 -9.8e-4,0.11326 -1.145,2.7559 -2.5411,5.8725 -2.6702,5.9608 -2.6934,6.0021 -3.1865,5.6698 z"
         id="path10"
         inkscape:connector-curvature="0"
         style="fill:#440bd2;stroke-width:0" />
      <path
         d="m -190.49,202.41 c -0.0535,-0.0245 -0.40648,-0.22192 -0.7844,-0.43864 -2.5065,-1.4374 -8.9352,-5.142 -10.124,-5.8344 -1.3432,-0.78203 -1.3315,-0.77407 -1.4342,-0.97168 -0.0457,-0.0877 -0.0675,-0.26258 -0.0256,-0.20514 0.0158,0.0217 0.0177,0.0201 0.0106,-0.01 -0.006,-0.0196 -0.0141,-0.0795 -0.0204,-0.13328 -0.01,-0.0857 -0.006,-0.11095 0.0439,-0.20447 0.0306,-0.0587 0.0827,-0.13163 0.11613,-0.16211 0.10137,-0.0926 1.4418,-0.96047 6.013,-3.8936 4.3384,-2.7838 6.0367,-3.8634 6.2266,-3.9582 0.12079,-0.0603 0.3387,-0.062 0.4962,-0.003 0.14657,0.0543 0.29285,0.18692 0.36779,0.33335 0.0804,0.15699 0.0945,0.37045 0.0348,0.52278 -0.0614,0.15674 -0.12971,0.23064 -0.34545,0.3739 -0.68243,0.45312 -2.3902,1.5414 -2.4051,1.5326 -0.0166,-0.0102 -0.8497,0.51275 -0.8497,0.53299 0,0.005 0.063,-0.0317 0.13992,-0.0816 0.077,-0.0499 0.14414,-0.0868 0.14931,-0.0818 0.01,0.01 -0.48033,0.33136 -0.50325,0.33136 -0.007,0 -5e-4,-0.0134 0.0133,-0.0295 0.0413,-0.0481 -4.9541,3.1612 -6.6929,4.2999 -0.79061,0.51775 -0.80323,0.52642 -0.79204,0.54385 0.0287,0.0448 1.7062,1.022 6.3143,3.6788 2.1692,1.2506 3.699,2.1393 4.6012,2.6728 0.0862,0.0511 0.13814,0.0771 0.11521,0.0579 -0.0229,-0.0192 -0.28279,-0.17641 -0.57747,-0.34937 -0.29469,-0.17297 -0.53177,-0.31835 -0.52683,-0.32311 0.0138,-0.0134 1.1186,0.63584 1.1966,0.70313 0.038,0.0328 0.0961,0.11255 0.12919,0.17728 0.0558,0.1091 0.0602,0.13059 0.0602,0.29591 0,0.16555 -0.004,0.18665 -0.0606,0.29652 -0.0388,0.0757 -0.0942,0.1474 -0.15426,0.19932 -0.11899,0.10292 -0.15449,0.10523 -0.0573,0.004 0.0407,-0.0426 0.0836,-0.0965 0.0952,-0.11985 0.0207,-0.0416 0.0204,-0.0416 -0.0117,0.002 -0.14806,0.20018 -0.26564,0.26562 -0.49861,0.27751 -0.14478,0.008 -0.17195,0.004 -0.25902,-0.0364 z m 0.25263,0.0184 c -0.0188,-0.0163 -0.16457,-0.0819 -0.16457,-0.074 0,0.0109 0.13207,0.0789 0.15534,0.0798 0.01,0.001 0.0135,-0.002 0.01,-0.007 z m -0.21994,-0.10842 c 0,-0.006 -0.0415,-0.0288 -0.0923,-0.0536 -0.0508,-0.0248 -0.0923,-0.0409 -0.0923,-0.0361 0,0.006 0.0395,0.0286 0.0876,0.0527 0.0986,0.0493 0.0969,0.0488 0.0969,0.0369 z m -0.20604,-0.10678 c -0.006,-0.005 -0.28673,-0.16163 -0.62599,-0.34841 -0.67695,-0.37272 -1.8959,-1.057 -2.9147,-1.6363 -0.73068,-0.41544 -0.6993,-0.3981 -0.67368,-0.3724 0.0349,0.0349 2.6267,1.4999 3.5806,2.0238 0.61238,0.33637 0.6666,0.36489 0.63373,0.33326 z m 1.035,-0.23976 c -5.3e-4,-0.0175 -0.007,-0.0145 -0.0168,0.01 -0.0217,0.0489 -0.0217,0.0768 0,0.0444 0.01,-0.0146 0.0175,-0.0387 0.0168,-0.0532 z m 0.0141,-0.0744 c -0.007,-0.0141 -0.0106,-0.0102 -0.0112,0.0107 -8.5e-4,0.0186 0.003,0.0292 0.01,0.0233 0.007,-0.007 0.007,-0.0212 9.8e-4,-0.034 z m 0.0193,-0.23145 c -0.004,-0.0417 -0.008,-0.012 -0.008,0.0662 -6e-5,0.0782 0.003,0.1123 0.008,0.0759 0.004,-0.0365 0.004,-0.1003 1.5e-4,-0.14204 z m -0.032,-0.15072 c -0.0201,-0.0302 -0.0207,-0.0302 -0.0106,10e-4 0.005,0.0178 0.0113,0.0418 0.012,0.0532 9.8e-4,0.015 0.004,0.0147 0.0106,-0.001 0.005,-0.0118 -5.3e-4,-0.0358 -0.012,-0.0533 z m -0.0738,-0.1361 c 0,-0.004 -0.0145,-0.0177 -0.0322,-0.031 -0.0293,-0.0221 -0.0299,-0.0214 -0.008,0.008 0.0241,0.0295 0.0392,0.0389 0.0392,0.0244 z m -5.2149,-1.5534 c -0.01,-0.009 -0.60307,-0.35109 -1.3187,-0.76133 -1.3224,-0.75805 -2.9796,-1.7147 -3.6821,-2.1255 -0.44054,-0.25766 -0.43128,-0.25249 -0.40604,-0.22688 0.0337,0.0342 2.0729,1.2147 5.1032,2.9543 0.28984,0.16639 0.34345,0.19454 0.30361,0.15945 z m -5.4345,-3.1344 c 0,-0.007 -0.16616,-0.10634 -0.4245,-0.25661 -0.0253,-0.0148 -0.0379,-0.0181 -0.0277,-0.008 0.0158,0.0165 0.43466,0.27013 0.44757,0.27102 0.002,0 0.004,-0.003 0.004,-0.008 z m -0.50755,-0.30542 c -0.0474,-0.035 -0.10148,-0.0639 -0.10148,-0.0538 0,0.01 0.1155,0.0818 0.1292,0.0814 0.006,0 -0.008,-0.0126 -0.0277,-0.0276 z m -0.11998,-0.0674 c 0,-0.004 -0.1225,-0.0813 -0.27223,-0.17204 -0.14973,-0.0907 -0.41966,-0.2594 -0.59985,-0.37486 -0.18017,-0.11547 -0.3276,-0.20601 -0.3276,-0.20117 0,0.0124 0.38733,0.2614 0.82132,0.52803 0.37635,0.23122 0.37836,0.23239 0.37836,0.22004 z m -1.2372,-0.77998 c -0.0148,-0.0131 -0.0985,-0.0764 -0.18584,-0.14099 -0.0873,-0.0645 -0.20778,-0.15862 -0.26762,-0.20902 -0.10728,-0.0903 -0.10712,-0.0901 0.0112,0.0192 0.066,0.0609 0.19471,0.16545 0.28607,0.23228 0.15436,0.11294 0.22008,0.15444 0.15621,0.0986 z m -0.58243,-0.50018 c -0.0166,-0.0244 -0.0339,-0.0444 -0.0384,-0.0444 -0.01,0 0.009,0.0323 0.0361,0.0665 0.0317,0.0395 0.0337,0.0235 0.002,-0.0222 z m 0.007,-0.3695 c 0.0407,-0.0665 0.20486,-0.18766 0.78891,-0.58275 0.98303,-0.66499 2.4633,-1.6338 4.7157,-3.0864 1.3459,-0.86799 1.6384,-1.0596 1.5319,-1.0033 -0.0386,0.0204 -2.1564,1.3845 -3.0823,1.9854 -1.092,0.7087 -2.0067,1.3086 -2.667,1.7494 -1.0362,0.69161 -1.2629,0.85484 -1.3108,0.94393 -0.0383,0.0713 -0.0212,0.0667 0.0235,-0.007 z m 8.429,-5.5433 c 1.8871,-1.2029 3.3638,-2.1228 3.8676,-2.4091 0.11674,-0.0663 0.2054,-0.12065 0.19701,-0.1207 -0.0509,0 -0.91818,0.52554 -2.338,1.4172 -0.89264,0.56062 -2.7186,1.7247 -2.7408,1.7473 -0.0302,0.0306 -0.0107,0.0185 1.0142,-0.63477 z m 3.7384,-0.88464 c 0.61387,-0.40625 0.81154,-0.54201 0.89286,-0.61325 0.0584,-0.0512 0.14058,-0.20368 0.13992,-0.25961 -2.2e-4,-0.0195 -0.0151,0.006 -0.0332,0.0557 -0.0633,0.17619 -0.0528,0.16744 -0.81509,0.67563 -0.2487,0.16578 -0.75533,0.49884 -1.1258,0.74011 -0.37051,0.2413 -0.69443,0.45479 -0.71981,0.47447 -0.0749,0.058 1.0507,-0.669 1.6611,-1.0729 z m 1.0468,-1.0368 c -0.004,-0.0269 -0.008,-0.01 -0.008,0.0397 -1.5e-4,0.0488 0.003,0.071 0.008,0.0491 0.004,-0.0218 0.004,-0.0619 2.3e-4,-0.0888 z m -0.0571,-0.22662 c -0.0255,-0.0538 -0.0508,-0.0976 -0.0559,-0.0976 -0.006,0 0.0108,0.0419 0.0357,0.0932 0.0248,0.0513 0.0462,0.10919 0.0475,0.12872 0.002,0.0299 0.003,0.0307 0.0107,0.004 0.004,-0.0172 -0.0125,-0.075 -0.038,-0.12874 z m -0.0669,-0.12212 c 0,-0.004 -0.0145,-0.0176 -0.0322,-0.031 -0.0293,-0.022 -0.0299,-0.0214 -0.008,0.008 0.0241,0.0295 0.0393,0.0389 0.0393,0.0243 z m -0.12918,-0.12428 c 0,-0.004 -0.0145,-0.0177 -0.0322,-0.031 -0.0293,-0.022 -0.0299,-0.0214 -0.008,0.008 0.0241,0.0295 0.0393,0.0389 0.0393,0.0244 z m -0.0739,-0.0563 c 0,-0.0165 -0.15464,-0.0783 -0.1938,-0.0774 -0.0202,9.6e-4 -0.003,0.0109 0.0376,0.0233 0.0411,0.0124 0.0908,0.0316 0.11075,0.0427 0.0425,0.0237 0.0455,0.0244 0.0455,0.0115 z m -0.2628,-0.0913 c -0.0176,-0.004 -0.0509,-0.006 -0.0738,0 -0.023,0.004 -0.009,0.009 0.0321,0.009 0.0405,0 0.0594,-0.003 0.0417,-0.009 z"
         id="path12"
         inkscape:connector-curvature="0"
         style="fill:#440bd2;stroke-width:0" />
    </g>
  </g>
</svg>
