<?xml version="1.0" encoding="UTF-8"?>
<!-- Created with Inkscape (http://www.inkscape.org/) -->
<svg width="49.367mm" height="42.863mm" version="1.1" viewBox="0 0 49.367 42.863" xmlns="http://www.w3.org/2000/svg" xmlns:cc="http://creativecommons.org/ns#" xmlns:dc="http://purl.org/dc/elements/1.1/" xmlns:rdf="http://www.w3.org/1999/02/22-rdf-syntax-ns#">
 <metadata>
  <rdf:RDF>
   <cc:Work rdf:about="">
    <dc:format>image/svg+xml</dc:format>
    <dc:type rdf:resource="http://purl.org/dc/dcmitype/StillImage"/>
    <dc:title/>
   </cc:Work>
  </rdf:RDF>
 </metadata>
 <g transform="translate(53.795 -54.549)">
  <path d="m-16.887 97.374-24.639-0.10971-12.225-21.393 12.415-21.284 24.639 0.10971 12.225 21.393z" fill="#d900af" stroke="#440bd2" stroke-width=".076405"/>
  <path d="m-18.092 95.489-22.594-0.1006-11.21-19.617 11.384-19.517 22.594 0.1006 11.21 19.617z" fill="#0f0015" stroke-width=".070062"/>
  <g fill="#d900af">
   <path d="m-25.142 89.409c-0.11437-0.0039-0.12078-2.4282-0.0131-6.3805v-1e-6c-0.0096 0.0083 1.1806-1.0156 1.171-1.0073 0.17872-1.0003 0.37423-2.0857 0.58035-3.2197l1e-6 -1e-6c1.1408-1.8291 2.406-3.8403 3.7491-5.957-9.14e-4 0.0045 0.25431-1.2514 0.2534-1.2469 0.19758-0.96902 0.39302-1.9201 0.58545-2.8492-0.08775-1.3194-0.17116-2.61-0.24853-3.8288-1.678-1.5274-3.1843-2.913-4.4816-4.123h-1e-6c-3.585-1.1028-5.8411-1.8597-5.8101-1.9664 0.03108-0.10683 2.3486 0.46705 6.0757 1.4913l1e-6 1e-6c1.3869 1.2245 3.0065 2.6741 4.8109 4.3051 0.12834 1.3182 0.26349 2.7233 0.39979 4.1671-0.19969 0.98242-0.40583 1.9891-0.61725 3.0139-9.55e-4 0.0046-0.27179 1.3134-0.27274 1.3181-1.3489 2.1137-2.6371 4.1149-3.8145 5.9287v1e-6c-0.25176 1.1553-0.49323 2.2549-0.71629 3.2635-0.01226 0.0095-1.1939 0.92806-1.2062 0.9376v1e-6c-0.15793 3.7532-0.33106 6.1575-0.44532 6.1535z"/>
   <path d="m-32.79 89.361c-0.11426 0.0039-0.28739-2.4003-0.44532-6.1535v-1e-6c0.01199 0.0093-1.2182-0.94691-1.2062-0.9376-0.22306-1.0086-0.46453-2.1081-0.71628-3.2635v-1e-6c-1.1775-1.8138-2.4656-3.8151-3.8145-5.9287 9.65e-4 0.0046-0.27371-1.3227-0.27274-1.3181-0.21142-1.0249-0.41756-2.0315-0.61725-3.0139 0.13629-1.4437 0.27144-2.8489 0.39978-4.1671 1.8044-1.631 3.424-3.0806 4.8109-4.3051l1e-6 -1e-6c3.7271-1.0243 6.0446-1.5981 6.0757-1.4913 0.03104 0.10671-2.225 0.8636-5.8101 1.9664h-1e-6c-1.2973 1.21-2.8036 2.5955-4.4817 4.123-0.07737 1.2188-0.16077 2.5094-0.24852 3.8288 0.19243 0.92918 0.38787 1.8802 0.58545 2.8492 9.15e-4 0.0045 0.25248 1.2424 0.2534 1.2469 1.3431 2.1167 2.6084 4.1279 3.7491 5.957 1e-6 1e-6 1e-6 1e-6 1e-6 2e-6 0.20611 1.134 0.40162 2.2194 0.58034 3.2197 0.01001 0.0086 1.161 0.99874 1.171 1.0073v1e-6c0.10767 3.9523 0.10127 6.3766-0.0131 6.3805z"/>
   <path d="m-25.142 89.409c0.1147 0.20332-1.6292 1.306-3.9405 2.5442-0.09745 0.0522-0.19414 0.10374-0.28987 0.15452-2.0603-1.3917-3.5462-2.5637-3.4171-2.7464 0.12999-0.18405 1.674 0.78768 3.4497 2.1032 0.08695-0.05227 0.17472-0.10479 0.26317-0.15745 2.0365-1.2125 3.8191-2.1029 3.9346-1.8981z"/>
   <path d="m-32.737 84.607c0.04966-0.19567 1.5483 0.03338 3.373 0.49198 0.13262-0.04185 0.26736-0.08364 0.40385-0.1252 2.004-0.61019 3.7126-0.95748 3.7743-0.74991 0.0617 0.20733-1.5956 0.86218-3.7392 1.4859-0.14329 0.0417-0.28483 0.08212-0.42408 0.12118h-1e-6c-1.976-0.50613-3.4376-1.0282-3.3879-1.224z"/>
   <path d="m-26.305 71.596c-0.0015-0.0047 0.0071-0.01197 0.02542-0.0227 0.01588-0.0092 0.03906-0.02061 0.06927-0.03428 0.05677-0.02569 0.13815-0.05917 0.24318-0.10076 0.24443-0.09679 0.48084-0.18605 0.72528-0.28284 0.19679-0.07805 0.46138-0.18202 0.69946-0.29958h1e-6c0.07174-0.03585 0.14422-0.07157 0.20181-0.11508h1e-6c0.01963-0.08361 0.04227-0.01509 0.02417 0.05681-0.02525-0.12852 7e-3 -0.20918 0.04726-0.22278 0.05093-0.06582 0.10718-0.11893 0.16146-0.16764h1e-6c0.15831-0.14405 0.30658-0.25916 0.4794-0.40256 0.15094-0.12582 0.31448-0.25973 0.44466-0.40708 0.05605-0.11551 0.1649-0.18546 0.1144-0.14657-0.08444-0.16812-0.31924-0.27174-0.54359-0.46541-0.2058-0.13037-0.45411-0.41363-0.35362-0.79304 0.10581-0.30711 0.35008-0.55736 0.24976-0.69106 0.1115 0.08005 0.13777 0.12048 0.1356 0.08756v-1e-6c-0.04653 0.01864-0.09742 0.06274-0.16486 0.11356-0.15845 0.12535-0.31947 0.2765-0.51673 0.41275-0.06108 0.04828-0.15345 0.10475-0.28492 0.13421-0.15088 0.01141-0.27598-0.06518-0.3351-0.20991l-1e-6 -3e-6c-0.11254-0.46207 0.06418-0.85095 0.11937-1.1973-0.04735-0.14935 0.03404-0.20042 0.0621-0.10244-6.89e-4 -0.06941-0.11038 0.10883-0.32118 0.20922-0.20162 0.05795-0.33933 0.01598-0.38346-0.0909l-2e-6 -3e-6c-0.05663-0.09921-0.08164-0.18804-0.09531-0.25474l-1e-6 -1e-6c-0.06152-0.24359-0.09543-0.4796-0.13555-0.71317v-1e-6c-0.10852-0.47162-0.05981-1.007-0.33506-1.1633 0.05832-0.04883-0.04 0.06428-0.19808 0.10934-0.18619 0.11725-0.36724 0.27309-0.5746 0.42396h-1e-6c-0.13616 0.12016-0.34785 0.27688-0.65525 0.29431-0.38202-0.11136-0.5088-0.43339-0.46381-0.65645-0.03996-0.01458 0.0089-0.03458 0.13533 0.05596-0.01391-0.01107-0.06844 0.03817-0.17957 0.08303-0.20554 0.10333-0.45616 0.13582-0.69262 0.06287-0.10534-0.0325-0.20741-0.0858-0.30106-0.16254-0.20566-0.18447-0.4246-0.344-0.64228-0.34767l-1e-6 1e-6c-0.05924 0.04433-0.16832 0.02405-0.07345-0.06237 0.0648 0.25727 0.17428 0.59186 0.07019 0.96902-0.03947 0.12895-0.16665 0.20643-0.35755 0.19962h-7e-6c-0.12729-0.04861-0.20132-0.11091-0.2338-0.15537-0.1422-0.14138-0.25066-0.28731-0.35812-0.4086-0.15033-0.07704-0.17442-0.22061-0.04727-0.14544-0.04799-0.03166-0.05907 0.1359-0.16343 0.31218-0.01422 0.16668-0.17518 0.40837-0.52862 0.45549h-1e-6c-0.34102-0.05071-0.62243-0.21034-0.86074-0.35311-0.17971-0.05522-0.31245-0.1777-0.27876-0.10956-0.13904 0.08834-0.14463 0.36209-0.20876 0.63303-0.04978 0.28588-0.0723 0.5876-0.13398 0.89072-0.125 0.31844-0.41629 0.42153-0.63498 0.39292-0.28941-0.0019-0.56654-0.05922-0.80712-0.09464h-1e-6c-0.23098-0.01606-0.4131-0.08564-0.49829-0.0095 0.0012-0.01613-0.0013 0.0053-0.0036 0.02154-0.0022 0.08387 0.05795 0.18516 0.11723 0.30059 0.27622 0.3992 0.48544 0.97943 0.12293 1.3876-0.10439 0.09179-0.19853 0.1287-0.23673 0.17443-0.02841-0.02253 0.0059 0.03974 0.02867 0.1035 0.12732 0.30879-0.0606 0.56575-0.19858 0.69108-0.19924 0.24602-0.3603 0.3833-0.48433 0.5983-0.08666 0.13598-0.05207 0.31436 0.06277 0.36069 0.83941 0.4874 1.5663 0.22594 1.5671 0.26153-5e-3 -0.2164-0.58615 0.42354-1.6589-0.08577-0.20825-0.12272-0.2987-0.39777-0.17166-0.64754 0.13658-0.25582 0.30206-0.41714 0.47795-0.64962 0.0912-0.1677 0.25541-0.34004 0.16551-0.37528-0.08459-0.10445-0.11739-0.28038-6e-3 -0.45639 0.09786-0.10266 0.1996-0.1512 0.24845-0.19973 0.25529-0.15569-0.01272-0.57012-0.21154-0.99265-0.07263-0.11285-0.15089-0.2602-0.17154-0.44704v-2e-6c-0.01201-0.12667 0.04383-0.25765 0.16963-0.34893 0.2686-0.13709 0.5353-0.09182 0.72967-0.05095l1e-6 1e-6c0.25799 0.03121 0.52042 0.08244 0.75567 0.07679 0.1414-0.03126 0.30632-0.04102 0.25396-0.08666 0.05172-0.27131 0.06887-0.56779 0.11889-0.88136 0.02271-0.25036 0.064-0.60058 0.33131-0.87576 0.31271-0.18112 0.61215-0.08129 0.76393 0.05328 0.24575 0.13387 0.47746 0.27359 0.70426 0.29274h1e-6c-0.04019 0.08795-0.03232-0.07188 0.07808-0.19952 0.03286-0.14502 0.12188-0.39077 0.40454-0.54979 0.34908-0.01756 0.52415 0.15582 0.53163 0.26033 0.12611 0.14002 0.229 0.27876 0.34007 0.38557 0.05003 0.03638 0.06183 0.06208 0.04604 0.04528l-4e-6 1e-6c-0.11579 0.01463-0.16981 0.03233-0.18468 0.08688 0.07686-0.16965-0.03935-0.42639-0.08735-0.74395 0.04209-0.36725 0.31079-0.53117 0.54055-0.46989h2e-6c0.3778 0.03524 0.69174 0.2355 0.92343 0.47035 0.0255 0.0375 0.06444 0.06097 0.11171 0.07317 0.10607 0.02737 0.25311-0.0022 0.38118-0.05553 0.05642-0.03382 0.16178-0.09656 0.33148-0.12351 0.27221 0.07795 0.38412 0.2404 0.35032 0.37141 0.06057 0.15205 0.03863 0.33148 0.02763 0.22923 0.08368 0.02688 0.20659-0.10076 0.3834-0.20774l1e-6 -1e-6c0.18864-0.13658 0.37885-0.2973 0.60024-0.4373 0.11879-0.12991 0.38805-0.23206 0.70196-0.08261 0.45517 0.41117 0.44866 1.0318 0.48816 1.4384v1e-6c0.04001 0.2424 0.0693 0.46742 0.12211 0.68238v1e-6c0.02017 0.06905 0.0277 0.1184 0.04377 0.13762l-1e-6 -2e-6c-0.0084-0.04858-0.07237-0.04539-0.21898-0.02753 0.10768-0.13222 0.35483-0.32396 0.71434-0.25499 0.25375 0.20401 0.26496 0.44068 0.19257 0.54175-0.05359 0.43026-0.23929 0.77626-0.14702 1.0343l-1e-6 -1e-6c-0.0309-0.04584-0.0526-0.05951-0.10294-0.06488 0.0235 0.0036 0.06687-0.03163 0.13461-0.07015 0.16744-0.1095 0.32567-0.2538 0.50365-0.38871 0.06364-0.05059 0.14224-0.10913 0.24557-0.1558l2e-6 -2e-6c0.07515-0.0668 0.21272-0.03432 0.35258 0.12428 0.1017 0.42151-0.15599 0.7546-0.27744 0.95605-0.0983 0.06618 0.10805 0.2369 0.25089 0.40322 0.19077 0.15921 0.43755 0.28967 0.59878 0.56729 0.07002 0.25752-0.06041 0.43119-0.16579 0.49177-0.15739 0.16466-0.3349 0.30104-0.49081 0.42037-0.18361 0.14134-0.33026 0.24553-0.48655 0.37628-0.05454 0.04637-0.1022 0.0859-0.13769 0.12926h-1e-6c-0.0072 0.05595-0.0307 0.02503-0.02522-0.02718 0.0095 0.16931-0.05363 0.2441-0.10223 0.23169v1e-6c-0.08238 0.05434-0.16725 0.09205-0.24211 0.12372-0.25818 0.1109-0.52766 0.19843-0.7326 0.26341l-1e-6 1e-6c-0.30662 0.09736-0.57251 0.1712-0.75184 0.21676-0.10955 0.02783-0.19584 0.0474-0.25706 0.05881-0.03268 0.0061-0.05827 0.0099-0.07661 0.01131-0.02127 0.0016-0.03248 3.18e-4 -0.03394-0.0043z"/>
   <path d="m-24.972 71.872c-2e-3 -0.0064 0.0094-0.01634 0.03414-0.03092 0.02187-0.01283 0.0542-0.02891 0.09662-0.0482 0.07958-0.03618 0.19437-0.08349 0.3429-0.14236 0.33586-0.1331 0.69306-0.26817 1.0289-0.40127 0.27954-0.11083 0.65602-0.25869 0.99477-0.42579 0.10211-0.05097 0.20533-0.1018 0.28743-0.16371 0.0287-0.12107 0.05989-0.01953 0.03462 0.08026-0.03578-0.1822 0.01-0.29653 0.06701-0.31582h1e-6c0.0722-0.0933 0.15194-0.1686 0.2289-0.23765l1e-6 -1e-6c0.22443-0.20422 0.43462-0.36739 0.67962-0.57069 0.21398-0.17838 0.44581-0.3682 0.63037-0.57709 0.07945-0.16375 0.23377-0.26292 0.16217-0.20778-0.11971-0.23834-0.45258-0.38523-0.77062-0.65978-0.29175-0.18482-0.64378-0.58638-0.50131-1.1243 0.11163-0.25776 0.2254-0.5213 0.30315-0.78377 0.02073-0.14348 0.07703-0.21874 0.05092-0.1959 0.15808 0.11348 0.19531 0.1708 0.19224 0.12413-0.06596 0.02642-0.1381 0.08895-0.23371 0.16099-0.22462 0.1777-0.45289 0.39198-0.73254 0.58513-0.0866 0.06844-0.21754 0.1485-0.40392 0.19027-0.2139 0.01618-0.39125-0.0924-0.47506-0.29758l-2e-6 -4e-6c-0.15955-0.65506 0.09098-1.2063 0.16921-1.6973-0.06713-0.21173 0.04826-0.28411 0.08804-0.14521-9.71e-4 -0.09839-0.15647 0.15428-0.45531 0.2966-0.28583 0.08215-0.48105 0.02265-0.54362-0.12887l-2e-6 -5e-6c-0.08028-0.14065-0.11574-0.26657-0.13513-0.36113v-1e-6c-0.08722-0.34533-0.13528-0.67991-0.19217-1.011l-1e-6 -2e-6c-0.06441-0.36985-0.12844-0.7411-0.22686-1.0907-0.0956-0.26268-0.12916-0.50465-0.24813-0.55845 0.08269-0.06922-0.0567 0.09113-0.2808 0.15501-0.26396 0.16621-0.52061 0.38714-0.81459 0.60103l-1e-6 1e-6c-0.19302 0.17035-0.49313 0.39252-0.92891 0.41722h-4e-6c-0.2188-0.01616-0.39864-0.12545-0.50424-0.29794l-2e-6 -3e-6c-0.12571-0.23235-0.15588-0.45612-0.15328-0.63268-0.05666-0.02067 0.01267-0.04902 0.19186 0.07934-0.01972-0.0157-0.09702 0.05411-0.25456 0.1177-0.29059 0.14609-0.64472 0.1923-0.97913 0.08998-0.1503-0.04599-0.29597-0.12181-0.42957-0.23128-0.29155-0.26151-0.60193-0.48767-0.91052-0.49288l-1e-6 1e-6c-0.08398 0.06285-0.23862 0.0341-0.10414-0.08842 0.09186 0.36472 0.24707 0.83906 0.0995 1.3737-0.05596 0.1828-0.23626 0.29265-0.50689 0.28299-0.18045-0.06891-0.2854-0.15723-0.33145-0.22027-0.2016-0.20043-0.35535-0.40731-0.50769-0.57926-0.0718-0.07852-0.13031-0.14553-0.18755-0.18712h-2e-6c-0.06817 0.0022-0.03451-0.02882 0.12053-0.01906h4e-6c-0.06803-0.04489-0.08373 0.19266-0.23168 0.44256-0.02015 0.23629-0.24834 0.57893-0.74941 0.64573h-2e-6c-0.48345-0.07189-0.88239-0.2982-1.2202-0.50059-0.25477-0.07828-0.44295-0.25191-0.39519-0.15532-0.1971 0.12523-0.20503 0.51331-0.29594 0.89741-0.07056 0.40528-0.1025 0.83302-0.18993 1.2627-0.17721 0.45144-0.59016 0.59758-0.90019 0.55702-0.41028-0.0026-0.80316-0.08395-1.1442-0.13417h-1e-6c-0.32745-0.02276-0.58563-0.1214-0.70639-0.01353 0.0017-0.02286-0.0018 0.0075-0.0051 0.03054v1e-6c-0.0031 0.1189 0.08216 0.2625 0.16619 0.42613 0.22481 0.38314 0.43341 0.7983 0.45753 1.2765 0.0089 0.25998-0.09278 0.51184-0.28328 0.69062-0.14799 0.13013-0.28146 0.18245-0.33562 0.24729-0.04028-0.03193 0.0084 0.05635 0.04061 0.14672l1e-6 2e-6c0.0999 0.19475 0.08394 0.387 0.01465 0.52536-0.08019 0.18353-0.19328 0.33098-0.29617 0.45433v1e-6c-0.28246 0.34878-0.51078 0.54338-0.68661 0.84818-0.06037 0.11674-0.1116 0.21506-0.09426 0.29508-0.0057 0.07689 0.09 0.15527 0.18325 0.21627 1.19 0.69096 2.2204 0.32031 2.2216 0.37076-0.0071-0.30678-0.83096 0.60043-2.3518-0.12159-0.14862-0.06537-0.30244-0.20141-0.35401-0.4186-0.02454-0.18883 0.03032-0.3618 0.11067-0.49939 0.19363-0.36267 0.4282-0.59135 0.67756-0.92093l1e-6 -1e-6c0.09195-0.12514 0.18282-0.24759 0.22694-0.37103 0.01832-0.07797 0.03762-0.15211 0.0077-0.161-0.11991-0.1481-0.16638-0.39752-0.0085-0.647 0.13874-0.14552 0.28297-0.21434 0.35223-0.28315 0.08939-0.07751 0.13467-0.21698 0.12636-0.35237-0.01164-0.34296-0.20933-0.67357-0.42624-1.0548-0.10297-0.15998-0.21392-0.36888-0.24319-0.63374l-1e-6 -2e-6c-0.01703-0.17958 0.06214-0.36526 0.24048-0.49466 0.38079-0.19435 0.75888-0.13017 1.0344-0.07223h2e-6c0.36575 0.04425 0.73778 0.11687 1.0713 0.10886 0.20046-0.04432 0.43425-0.05815 0.36002-0.12284 0.07332-0.38462 0.09763-0.80494 0.16854-1.2495 0.0322-0.35492 0.09073-0.85141 0.46968-1.2415 0.44332-0.25676 0.86782-0.11524 1.083 0.07553 0.34838 0.18979 0.67686 0.38786 0.9984 0.415h2e-6c-0.05699 0.12469-0.04583-0.10189 0.11068-0.28285 0.04659-0.20558 0.17279-0.55398 0.5735-0.77942l7e-6 -1e-6c0.27626-0.03726 0.44185 0.02124 0.4774 0.10275l1e-6 3e-6c0.11489 0.0892 0.20321 0.18279 0.27625 0.26632 0.17878 0.19851 0.32464 0.39518 0.48211 0.5466 0.07092 0.05157 0.08766 0.088 0.06527 0.0642-0.16415 0.02073-0.24073 0.04583-0.26181 0.12317 0.10895-0.24051-0.05578-0.60448-0.12383-1.0547 0.05966-0.52063 0.4406-0.75301 0.76631-0.66614 0 0 3e-6 1e-6 3e-6 1e-6 0.53559 0.04996 0.98064 0.33385 1.3091 0.66679 0.03637 0.05349 0.09203 0.08685 0.1596 0.10405 0.15027 0.03825 0.35808-0.0037 0.53914-0.07905 0.07999-0.04795 0.22934-0.13689 0.46991-0.1751 0.3859 0.11051 0.54455 0.34081 0.49663 0.52653 0.01664 0.15722 0.01585 0.28025 0.06169 0.33216h-1e-6c-0.0038-0.0038 9.6e-5 0.0042-0.02252-0.0072v-1e-6c0.11864 0.03811 0.29287-0.14285 0.54352-0.2945l2e-6 -1e-6c0.26743-0.19362 0.53708-0.42146 0.85092-0.61993 0.1684-0.18417 0.55012-0.32899 0.99514-0.11711 0.312 0.28086 0.41349 0.62985 0.46078 0.88553 0.10565 0.39091 0.1709 0.7824 0.23126 1.1536v2e-6c0.05671 0.34363 0.09824 0.66263 0.17311 0.96737l1e-6 2e-6c0.02859 0.09788 0.03927 0.16784 0.06205 0.19509l-1e-6 -2e-6c-0.01187-0.06887-0.1026-0.06435-0.31044-0.03903 0.15265-0.18744 0.50302-0.45926 1.0127-0.36149 0.35973 0.28922 0.37562 0.62473 0.273 0.76801-0.07597 0.60995-0.33923 1.1005-0.20842 1.4663l-1e-6 -1e-6c-0.0438-0.06498-0.07457-0.08437-0.14593-0.09198 0.03331 0.0051 0.09481-0.04484 0.19083-0.09945 0.23738-0.15524 0.46169-0.35981 0.714-0.55106 0.09022-0.07172 0.20164-0.1547 0.34813-0.22086 0.10654-0.0947 0.30157-0.04865 0.49985 0.17618v3e-6c0.0578 0.25428 4.05e-4 0.43447-0.05068 0.52235-0.09664 0.29804-0.22326 0.57653-0.34263 0.833-0.13936 0.09381 0.15318 0.33583 0.35567 0.57162 0.27045 0.2257 0.62029 0.41064 0.84887 0.80422 0.09926 0.36507-0.08565 0.61128-0.23504 0.69716-0.22312 0.23344-0.47476 0.42677-0.69578 0.59594l-1e-6 1e-6c-0.2603 0.20038-0.46819 0.34807-0.68975 0.53343v1e-6c-0.07732 0.06574-0.14488 0.12178-0.19521 0.18325v1e-6c-0.01018 0.07926-0.04355 0.03555-0.03575-0.03852 0.01334 0.24047-0.07652 0.34656-0.14551 0.32883-0.11721 0.07719-0.23796 0.13077-0.3445 0.17579-0.36728 0.15759-0.75059 0.28198-1.0418 0.37422-0.4357 0.13822-0.81292 0.24284-1.0667 0.30716l-1e-6 1e-6c-0.15512 0.03932-0.27691 0.06683-0.36284 0.08267-0.04591 0.0085-0.08166 0.0136-0.10701 0.01542h-1e-6c-0.02864 2e-3 -0.04372 1.77e-4 -0.04571-0.0062z"/>
   <path d="m-27.692 71.052c-0.0015-0.0047 0.016-0.01434 0.05232-0.03076 0.02967-0.0133 0.07165-0.03051 0.12551-0.0518 0.13523-0.05347 0.23224-0.08989 0.36747-0.14336 0.09924-0.03942 0.23202-0.09168 0.35151-0.15089 0.0329-7e-3 0.06655-0.01267 0.09169-0.02148 0.016-0.02596 0.04115-0.05466 0.03292-0.08141-0.02282-0.07411 0.05093-0.11656 0.09416-0.12407h1e-6c0.08041-0.07317 0.15574-0.13165 0.24352-0.20448 0.07667-0.06392 0.15974-0.13193 0.22586-0.20677 0.02846-0.05869 0.08375-0.09419 0.0581-0.07438-0.04288-0.08538-0.16214-0.13801-0.27611-0.23639-0.10455-0.06622-0.23069-0.21012-0.17964-0.40291 0.05374-0.15602 0.17782-0.28312 0.12686-0.35097 0.09752 0.0094 0.09456 0.10666-0.01479 0.10216-0.08048 0.06367-0.16227 0.14045-0.26248 0.20966-0.04748 0.07592-0.19017 0.10289-0.31496-0.03847-0.05718-0.23471 0.03259-0.43223 0.06062-0.60816-0.02406-0.07589 0.0173-0.10178 0.03155-0.05203-3.4e-4 -0.03525-0.05605 0.05528-0.16313 0.10628h-3e-6c-0.2142 0.0054-0.29579-0.11002-0.24319-0.17558l1e-6 -1e-6c-0.03125-0.12373-0.04847-0.24361-0.06886-0.36226v-1e-6c-0.05512-0.23954-0.03039-0.51152-0.1702-0.59092 0.02962-0.0248-0.02032 0.03265-0.10062 0.05554-0.09458 0.05956-0.18654 0.13872-0.29187 0.21536l-1e-6 1e-6c-0.06916 0.06104-0.17669 0.14064-0.33283 0.14949-0.19405-0.05657-0.25845-0.22014-0.23559-0.33346 0.08945 0.01075 0.03958 0.06352-0.02246 0.07061-0.10484 0.05271-0.23278 0.06913-0.35334 0.03147-0.05297-0.01655-0.10428-0.04348-0.15141-0.08209-0.18328-0.0692-0.52498-0.26316-0.36356-0.20828 0.03291 0.13068 0.08853 0.30064 0.03565 0.49222l-2e-6 2e-6c-0.14032 0.12357-0.26673 0.10306-0.30039 0.02248-0.07223-0.07182-0.12733-0.14594-0.18191-0.20755-0.07636-0.03913-0.0886-0.11206-0.024-0.07388-0.02437-0.01609-0.03 0.06903-0.08301 0.15857-0.0072 0.08467-0.08898 0.20744-0.26852 0.23137h-1e-6c-0.17323-0.02576-0.31617-0.10685-0.43722-0.17936-0.09129-0.02805-0.15871-0.09026-0.1416-0.05565-0.18139 0.12562-0.10125 0.47337-0.17409 0.774-0.06351 0.16176-0.21148 0.21412-0.32256 0.19959-0.14701-9.47e-4 -0.28778-0.03008-0.40998-0.04808h-1e-6c-0.11733-0.0082-0.20983-0.0435-0.2531-0.0049-0.04233-0.03738 0.03369 0.06654 0.05774 0.16362 0.14033 0.20281 0.24656 0.49753 0.06243 0.70483-0.07306 0.08053-0.16163 0.12421-0.10566 0.14116 0.06468 0.1569-0.03078 0.28744-0.10087 0.35109-0.10121 0.12497-0.18302 0.1947-0.24602 0.3039-0.04401 0.06905-0.02646 0.15964 0.03186 0.18316 0.42633 0.24757 0.79556 0.11479 0.79598 0.13288-0.0026-0.1099-0.29775 0.21516-0.84268-0.04353-0.1058-0.06235-0.15175-0.20209-0.08721-0.32898 0.06938-0.12995 0.15344-0.2119 0.24278-0.32998 0.04632-0.08519 0.12972-0.17272 0.08406-0.19057-0.05319-0.15205 0.03757-0.26873 0.12322-0.3333 0.12967-0.07909-0.0065-0.28957-0.10746-0.50423-0.07696-0.07883-0.14165-0.25691-9.73e-4 -0.40431 0.13643-0.06964 0.2719-0.04665 0.37063-0.02589 0.13104 0.01585 0.26435 0.04187 0.38384 0.039 0.07183-0.01588 0.1556-0.02083 0.129-0.04402 0.03321-0.23298-0.02536-0.6301 0.22869-0.89252 0.15884-0.092 0.31094-0.0413 0.38805 0.02706 0.12482 0.068 0.24253 0.13897 0.35773 0.14869-0.02043 0.04468-0.01643-0.03651 0.03965-0.10134 0.01669-0.07366 0.06191-0.1985 0.20549-0.27927 0.17733-0.0089 0.26626 0.07915 0.27005 0.13224 0.06406 0.07113 0.11632 0.14159 0.17274 0.19585 0.03724-0.01373 0.03729 0.03658-0.07043 0.06714h-1e-6c0.03904-0.08617-0.01999-0.21658-0.04437-0.37789 0.08603-0.37408 0.58135-0.2553 0.74364 2.36e-4 0.01283 0.01887 0.03236 0.03074 0.05606 0.03699 0.05393 0.01421 0.12898-8.48e-4 0.19431-0.02803 0.08964-0.0639 0.24938-0.04982 0.34632 0.12592 0.03077 0.07723 0.01962 0.16837 0.01403 0.11644 0.04251 0.01365 0.10494-0.05118 0.19474-0.10552l1e-6 -1e-6c0.09582-0.06938 0.19244-0.15101 0.30489-0.22212 0.06034-0.06599 0.19711-0.11788 0.35656-0.04196 0.23121 0.20885 0.2279 0.52414 0.24796 0.73065 0.02032 0.12313 0.0352 0.23743 0.06202 0.34662l1e-6 1e-6c0.0887 0.03996 0.03158 0.10576-0.08899 0.05591l-2e-6 -1e-6c0.05469-0.06716 0.18023-0.16455 0.36286-0.12952 0.1289 0.10364 0.13458 0.22386 0.09781 0.27519-0.02723 0.21856-0.12155 0.3943-0.07469 0.52539-0.09464-0.01676-0.03604-0.07301 0.01608-0.06861 0.08505-0.05562 0.16543-0.12892 0.25584-0.19744 0.0067-0.08115 0.14831-0.14124 0.30391-0.01602 0.05166 0.21416-0.07924 0.38336-0.14093 0.48568-0.04993 0.03355 0.05488 0.12025 0.12742 0.20474 0.09689 0.08086 0.22225 0.14714 0.30417 0.28818 0.03557 0.13087-0.03069 0.21911-0.08423 0.24987-0.07995 0.08365-0.17012 0.15292-0.24932 0.21354-0.09326 0.07179-0.16776 0.12472-0.24714 0.19113-0.04378 0.06717-0.11921 0.10435-0.09462 0.1261 0.0091 0.0081-0.01551 0.01082-0.03017 0.0066-0.04463 0.04036-0.09039 0.07176-0.13072 0.09866-0.12967 0.0559-0.26504 0.09998-0.36834 0.13282-0.1547 0.04926-0.28943 0.0868-0.38089 0.11017h-1e-6c-0.05613 0.01434-0.10063 0.02454-0.13254 0.03062-0.03925 0.0074-0.05919 0.0092-0.06067 0.0045z"/>
  </g>
 </g>
</svg>
